<svg width="30" height="24" viewBox="0 0 30 24" fill="none" xmlns="http://www.w3.org/2000/svg">
<g clip-path="url(#clip0_279_44)">
<path d="M15 0C15.8297 0 16.5 0.670312 16.5 1.5V4.5H22.125C23.9906 4.5 25.5 6.00938 25.5 7.875V20.625C25.5 22.4906 23.9906 24 22.125 24H7.875C6.00938 24 4.5 22.4906 4.5 20.625V7.875C4.5 6.00938 6.00938 4.5 7.875 4.5H13.5V1.5C13.5 0.670312 14.1703 0 15 0ZM9.75 18C9.3375 18 9 18.3375 9 18.75C9 19.1625 9.3375 19.5 9.75 19.5H11.25C11.6625 19.5 12 19.1625 12 18.75C12 18.3375 11.6625 18 11.25 18H9.75ZM14.25 18C13.8375 18 13.5 18.3375 13.5 18.75C13.5 19.1625 13.8375 19.5 14.25 19.5H15.75C16.1625 19.5 16.5 19.1625 16.5 18.75C16.5 18.3375 16.1625 18 15.75 18H14.25ZM18.75 18C18.3375 18 18 18.3375 18 18.75C18 19.1625 18.3375 19.5 18.75 19.5H20.25C20.6625 19.5 21 19.1625 21 18.75C21 18.3375 20.6625 18 20.25 18H18.75ZM12.375 12C12.375 11.5027 12.1775 11.0258 11.8258 10.6742C11.4742 10.3225 10.9973 10.125 10.5 10.125C10.0027 10.125 9.52581 10.3225 9.17418 10.6742C8.82254 11.0258 8.625 11.5027 8.625 12C8.625 12.4973 8.82254 12.9742 9.17418 13.3258C9.52581 13.6775 10.0027 13.875 10.5 13.875C10.9973 13.875 11.4742 13.6775 11.8258 13.3258C12.1775 12.9742 12.375 12.4973 12.375 12ZM19.5 13.875C19.9973 13.875 20.4742 13.6775 20.8258 13.3258C21.1775 12.9742 21.375 12.4973 21.375 12C21.375 11.5027 21.1775 11.0258 20.8258 10.6742C20.4742 10.3225 19.9973 10.125 19.5 10.125C19.0027 10.125 18.5258 10.3225 18.1742 10.6742C17.8225 11.0258 17.625 11.5027 17.625 12C17.625 12.4973 17.8225 12.9742 18.1742 13.3258C18.5258 13.6775 19.0027 13.875 19.5 13.875ZM2.25 10.5H3V19.5H2.25C1.00781 19.5 0 18.4922 0 17.25V12.75C0 11.5078 1.00781 10.5 2.25 10.5ZM27.75 10.5C28.9922 10.5 30 11.5078 30 12.75V17.25C30 18.4922 28.9922 19.5 27.75 19.5H27V10.5H27.75Z" fill="#242424"/>
</g>
<defs>
<clipPath id="clip0_279_44">
<rect width="30" height="24" fill="white"/>
</clipPath>
</defs>
</svg>
