<svg width="35" height="35" viewBox="0 0 35 35" fill="none" xmlns="http://www.w3.org/2000/svg">
<path d="M8.75002 20.4167H20.4167V17.5H8.75002V20.4167ZM8.75002 16.0417H26.25V13.125H8.75002V16.0417ZM8.75002 11.6667H26.25V8.75H8.75002V11.6667ZM2.91669 32.0833V5.83333C2.91669 5.03125 3.20252 4.34437 3.77419 3.77271C4.34585 3.20104 5.03224 2.91569 5.83335 2.91667H29.1667C29.9688 2.91667 30.6556 3.2025 31.2273 3.77417C31.799 4.34583 32.0843 5.03222 32.0834 5.83333V23.3333C32.0834 24.1354 31.7975 24.8223 31.2259 25.394C30.6542 25.9656 29.9678 26.251 29.1667 26.25H8.75002L2.91669 32.0833Z" fill="#242424"/>
</svg>
