<svg width="35" height="35" viewBox="0 0 35 35" fill="none" xmlns="http://www.w3.org/2000/svg">
<path d="M13.4896 32.0833L12.9063 27.4167C12.5903 27.2951 12.2923 27.1493 12.0123 26.9792C11.7323 26.809 11.4591 26.6267 11.1927 26.4323L6.85417 28.2552L2.84375 21.3281L6.59896 18.4844C6.57465 18.3142 6.5625 18.1499 6.5625 17.9914V17.0085C6.5625 16.8501 6.57465 16.6858 6.59896 16.5156L2.84375 13.6719L6.85417 6.74478L11.1927 8.5677C11.4601 8.37325 11.7396 8.19096 12.0313 8.02082C12.3229 7.85068 12.6146 7.70485 12.9063 7.58332L13.4896 2.91666H21.5104L22.0938 7.58332C22.4097 7.70485 22.7077 7.85068 22.9877 8.02082C23.2677 8.19096 23.5409 8.37325 23.8073 8.5677L28.1458 6.74478L32.1562 13.6719L28.401 16.5156C28.4253 16.6858 28.4375 16.8501 28.4375 17.0085V17.9914C28.4375 18.1499 28.4132 18.3142 28.3646 18.4844L32.1198 21.3281L28.1094 28.2552L23.8073 26.4323C23.5399 26.6267 23.2604 26.809 22.9688 26.9792C22.6771 27.1493 22.3854 27.2951 22.0938 27.4167L21.5104 32.0833H13.4896ZM17.5729 22.6042C18.9826 22.6042 20.1858 22.1059 21.1823 21.1094C22.1788 20.1128 22.6771 18.9097 22.6771 17.5C22.6771 16.0903 22.1788 14.8871 21.1823 13.8906C20.1858 12.8941 18.9826 12.3958 17.5729 12.3958C16.1389 12.3958 14.9294 12.8941 13.9446 13.8906C12.9597 14.8871 12.4678 16.0903 12.4688 17.5C12.4688 18.9097 12.9607 20.1128 13.9446 21.1094C14.9285 22.1059 16.1379 22.6042 17.5729 22.6042Z" fill="#242424"/>
</svg>
