<svg width="35" height="35" viewBox="0 0 35 35" fill="none" xmlns="http://www.w3.org/2000/svg">
<path d="M30.625 27.7083V29.1667H4.375V27.7083L7.29167 24.7917V16.0417C7.29167 11.5208 10.2521 7.53957 14.5833 6.25624V5.83332C14.5833 5.05978 14.8906 4.31791 15.4376 3.77093C15.9846 3.22395 16.7265 2.91666 17.5 2.91666C18.2735 2.91666 19.0154 3.22395 19.5624 3.77093C20.1094 4.31791 20.4167 5.05978 20.4167 5.83332V6.25624C24.7479 7.53957 27.7083 11.5208 27.7083 16.0417V24.7917L30.625 27.7083ZM20.4167 30.625C20.4167 31.3985 20.1094 32.1404 19.5624 32.6874C19.0154 33.2344 18.2735 33.5417 17.5 33.5417C16.7265 33.5417 15.9846 33.2344 15.4376 32.6874C14.8906 32.1404 14.5833 31.3985 14.5833 30.625" fill="#242424"/>
</svg>
