<svg width="35" height="35" viewBox="0 0 35 35" fill="none" xmlns="http://www.w3.org/2000/svg">
<path d="M14.5834 5.83333C17.7917 5.83333 20.4167 8.45833 20.4167 11.6667C20.4167 14.875 17.7917 17.5 14.5834 17.5C11.375 17.5 8.75002 14.875 8.75002 11.6667C8.75002 8.45833 11.375 5.83333 14.5834 5.83333ZM24.7917 30.625L27.4167 33.2062C28.1459 33.9354 29.1667 33.3521 29.1667 32.4917V26.25L33.25 21.2917C33.4125 21.075 33.5115 20.8174 33.5358 20.5476C33.5601 20.2779 33.5088 20.0067 33.3877 19.7645C33.2666 19.5222 33.0804 19.3185 32.85 19.1761C32.6197 19.0337 32.3542 18.9583 32.0834 18.9583H21.875C20.7084 18.9583 19.9792 20.4167 20.7084 21.2917L24.7917 26.25V30.625ZM21.875 27.2708L18.5209 23.1875C17.9375 22.4583 17.6459 21.5833 17.6459 20.7083C16.625 20.4167 15.6042 20.4167 14.5834 20.4167C8.16669 20.4167 2.91669 23.0417 2.91669 26.25V29.1667H21.875V27.2708Z" fill="#242424"/>
</svg>
